<svg version="1.2" xmlns="http://www.w3.org/2000/svg" viewBox="0 0 300 300" width="100" height="100">
	<defs>
		<linearGradient id="g1" x2="1" gradientUnits="userSpaceOnUse" gradientTransform="matrix(170.552,392.954,-929.771,403.545,-8.097,-97.746)">
			<stop offset="0" stop-color="#62c9fd"/>
			<stop offset="1" stop-color="#1352a0"/>
		</linearGradient>
		<linearGradient id="g2" x2="1" gradientUnits="userSpaceOnUse" gradientTransform="matrix(170.552,392.954,-929.771,403.545,-8.097,-97.746)">
			<stop offset="0" stop-color="#62c9fd"/>
			<stop offset="1" stop-color="#1352a0"/>
		</linearGradient>
		<linearGradient id="g3" x2="1" gradientUnits="userSpaceOnUse" gradientTransform="matrix(170.552,392.954,-882.5,383.029,-8.097,-97.746)">
			<stop offset="0" stop-color="#62c9fd"/>
			<stop offset="1" stop-color="#1352a0"/>
		</linearGradient>
		<linearGradient id="g4" x2="1" gradientUnits="userSpaceOnUse" gradientTransform="matrix(170.552,392.954,-330.901,143.62,-8.097,-97.746)">
			<stop offset="0" stop-color="#62c9fd"/>
			<stop offset="1" stop-color="#1352a0"/>
		</linearGradient>
		<linearGradient id="g5" x2="1" gradientUnits="userSpaceOnUse" gradientTransform="matrix(170.552,392.954,-458.496,199,-8.097,-97.746)">
			<stop offset="0" stop-color="#62c9fd"/>
			<stop offset="1" stop-color="#1352a0"/>
		</linearGradient>
		<linearGradient id="g6" x2="1" gradientUnits="userSpaceOnUse" gradientTransform="matrix(170.552,392.954,-471.474,204.632,-8.097,-97.746)">
			<stop offset="0" stop-color="#62c9fd"/>
			<stop offset="1" stop-color="#1352a0"/>
		</linearGradient>
		<linearGradient id="g7" x2="1" gradientUnits="userSpaceOnUse" gradientTransform="matrix(170.552,392.954,-405.398,175.953,-8.097,-97.746)">
			<stop offset="0" stop-color="#62c9fd"/>
			<stop offset="1" stop-color="#1352a0"/>
		</linearGradient>
		<linearGradient id="g8" x2="1" gradientUnits="userSpaceOnUse" gradientTransform="matrix(170.552,392.954,-291.154,126.369,-8.097,-97.746)">
			<stop offset="0" stop-color="#62c9fd"/>
			<stop offset="1" stop-color="#1352a0"/>
		</linearGradient>
		<linearGradient id="g9" x2="1" gradientUnits="userSpaceOnUse" gradientTransform="matrix(170.552,392.954,-318.71,138.329,-8.097,-97.746)">
			<stop offset="0" stop-color="#62c9fd"/>
			<stop offset="1" stop-color="#1352a0"/>
		</linearGradient>
	</defs>
	<style>
		.s0 { fill: url(#g1);stroke: #552200;stroke-width: 1 } 
		.s1 { fill: url(#g2);stroke: #552200;stroke-width: 1 } 
		.s2 { fill: url(#g3);stroke: #552200;stroke-width: 1 } 
		.s3 { fill: url(#g4);stroke: #552200;stroke-width: 1 } 
		.s4 { fill: url(#g5);stroke: #552200;stroke-width: 1 } 
		.s5 { fill: url(#g6);stroke: #552200;stroke-width: 1 } 
		.s6 { fill: url(#g7);stroke: #552200;stroke-width: 1 } 
		.s7 { fill: url(#g8);stroke: #552200;stroke-width: 1 } 
		.s8 { fill: url(#g9);stroke: #552200;stroke-width: 1 } 
		.s9 { fill: none } 
		.s10 { fill: #ffffff;stroke: #552200;stroke-width: 1 } 
	</style>
	<g id="g3026">
		<g id="layer4">
			<path id="path17078" class="s0" d="m145.94 270.71c-0.97-0.16-2.1 0.01-3.58 0.46-1.48 0.44-3.31 1.18-5.7 2.16-4.42 1.83-9.62 4.12-11.54 5.08-1.68 0.85-3.62 2.15-5.14 3.38-0.76 0.61-1.41 1.2-1.88 1.7-0.47 0.5-0.74 0.91-0.74 1.17 0 0.26 2.01 1.31 4.46 2.31 2.46 1 5.17 2.31 6.02 2.91q0.95 0.68 2.41 0.8 1.45 0.12 3.46-0.32 2.02-0.44 4.64-1.45 2.62-1.01 5.91-2.61c2.24-1.1 4.5-2.09 6.32-2.81 1.82-0.72 3.21-1.16 3.72-1.16 0.96 0 1.59-0.27 1.8-0.65q0.16-0.29-0.01-0.63-0.17-0.34-0.7-0.68c-0.44-0.27-2.21-2.4-3.94-4.74-1.13-1.53-2.02-2.69-2.88-3.5-0.85-0.81-1.66-1.27-2.63-1.42z"/>
			<path id="path17076" class="s1" d="m145.94 270.71c0.97 0.15 1.78 0.61 2.63 1.42 0.86 0.81 1.75 1.97 2.88 3.5 1.73 2.34 3.5 4.47 3.94 4.74q0.53 0.34 0.7 0.68 0.17 0.34 0.01 0.63c-0.21 0.38-0.84 0.65-1.8 0.65-0.51 0-1.9 0.44-3.72 1.16-1.82 0.72-4.08 1.71-6.32 2.81q-3.29 1.6-5.91 2.61-2.62 1.01-4.64 1.45-2.01 0.44-3.46 0.32-1.46-0.12-2.41-0.8c-0.85-0.6-3.56-1.91-6.02-2.91-2.45-1-4.46-2.05-4.46-2.31 0-0.26 0.27-0.67 0.74-1.17 0.47-0.5 1.12-1.09 1.88-1.7 1.52-1.23 3.46-2.53 5.14-3.38 1.92-0.96 7.12-3.25 11.54-5.08 2.39-0.98 4.22-1.72 5.7-2.16 1.48-0.45 2.61-0.62 3.58-0.46z"/>
			<path id="path17074" class="s2" d="m146.58 238.54l-1.61 2.22c-2.51 3.48-4.2 5.71-5.79 7.48-1.58 1.78-3.06 3.11-5.14 4.79-2.53 2.04-6.89 5.06-9.67 6.71-2.79 1.66-7.33 4.68-10.09 6.71-2.21 1.63-3.42 2.57-3.91 3.18q-0.36 0.45-0.23 0.71 0.13 0.26 0.64 0.46c0.66 0.28 1.85 0.43 3.37 0.45 1.52 0.03 3.37-0.07 5.37-0.27 2-0.19 4.14-0.49 6.24-0.87 2.09-0.38 4.14-0.84 5.96-1.37 1.92-0.55 4.48-1.45 7.04-2.44 2.57-1 5.15-2.09 7.12-3.04 2.05-1 3.68-1.85 4.96-2.67 1.27-0.82 2.21-1.6 2.88-2.47 0.68-0.87 1.1-1.82 1.35-2.96 0.25-1.14 0.33-2.48 0.33-4.13q0-1.84-0.38-3.45-0.38-1.6-1.15-2.96-0.76-1.36-1.92-2.49-1.16-1.13-2.71-2.04z"/>
			<path id="path17072" class="s3" d="m169.59 3.12h-12.15c0.19 0.82 0.38 1.62 0.47 2.68 0.14 1.48 0.19 3.23 0.2 5.33 0 3.2 0.07 5.26 0.27 6.68 0.21 1.42 0.55 2.2 1.09 2.84 0.37 0.43 0.84 0.82 1.29 1.11 0.45 0.29 0.89 0.46 1.2 0.46q0.6 0 1.19-0.32 0.59-0.31 1.16-0.92c0.76-0.8 1.49-1.97 2.14-3.41 0.66-1.45 1.25-3.18 1.73-5.12 0.48-1.94 0.86-4.08 1.1-6.34z"/>
			<path id="path17070" class="s4" d="m297.14 94.37v-42.22c0-27.16-21.87-49.03-49.04-49.03h-76.82l0.3 0.47c0.54 0.84 0.93 1.65 1.15 2.51 0.23 0.86 0.29 1.76 0.18 2.79-0.11 1.03-0.38 2.19-0.84 3.54-0.46 1.36-1.09 2.91-1.91 4.74-1.28 2.86-2.33 5.34-2.33 5.52 0 0.17 1.32 0.31 2.93 0.31q1.42 0.01 2.57-0.32 1.15-0.32 2.13-1.03 0.97-0.71 1.85-1.88 0.88-1.16 1.75-2.84c0.52-1 1-1.75 1.35-2.16q0.26-0.31 0.42-0.34 0.15-0.03 0.16 0.26c0.01 0.55-0.16 1.28-0.48 2.14-0.33 0.85-0.8 1.82-1.38 2.84-1.16 2.04-2.76 4.27-4.49 6.14-1.74 1.89-2.97 3.62-2.74 3.86 0.23 0.23 2.02 0.05 4.01-0.29 2-0.34 4.22-0.86 5.31-1.32q0.67-0.28 1-0.2 0.32 0.07 0.3 0.46c-0.04 0.52-0.53 1.43-1.48 2.64-0.57 0.72-1.25 1.26-2.21 1.7-0.95 0.44-2.18 0.77-3.81 1.06-2.48 0.44-4.39 0.87-5.79 1.38q-1.04 0.37-1.7 0.82-0.67 0.45-0.97 1.01-0.3 0.55-0.26 1.24 0.04 0.69 0.41 1.55c0.49 1.15 1.4 2.54 2.69 4.27 1.33 1.79 2.67 4.25 3.68 6.62 0.51 1.19 0.94 2.35 1.24 3.4 0.31 1.05 0.5 1.99 0.52 2.71q0.03 0.57 0.92 1.72 0.89 1.15 2.58 2.83c2.25 2.23 5.53 5.12 9.67 8.5q7.27 5.93 11.34 10.02 2.04 2.04 3.26 3.62 1.23 1.58 1.64 2.68c0.44 1.17 0.68 2.13 0.52 2.13-0.15 0-2.55-1.06-5.32-2.36q-2.73-1.28-5.25-2.1-2.52-0.82-4.99-1.2-2.47-0.38-5.08-0.35-2.6 0.03-5.51 0.45c-3.52 0.49-6.51 1.01-6.65 1.15-0.26 0.26 0.49 2.71 1.67 5.81 1.17 3.1 2.77 6.85 4.21 9.72 1.33 2.65 2.04 4.14 2.26 5.02 0.11 0.43 0.1 0.72-0.01 0.92-0.12 0.2-0.34 0.32-0.64 0.41-0.55 0.18-0.86 0.41-0.99 0.85-0.12 0.44-0.05 1.09 0.16 2.09 0.34 1.57 0.38 4.04 0.21 6.11-0.08 1.04-0.22 1.98-0.39 2.66-0.17 0.68-0.38 1.1-0.61 1.1-0.19 0-0.37-0.2-0.49-0.53-0.13-0.33-0.21-0.78-0.21-1.27 0-0.5-0.49-1.95-1.3-3.88-0.8-1.94-1.91-4.36-3.13-6.8-1.87-3.75-3.23-6.22-4.78-8.42-1.55-2.2-3.3-4.15-5.97-6.86-1.73-1.76-3.43-3.36-4.75-4.52-1.33-1.16-2.3-1.88-2.57-1.88-0.26 0-0.44 0.22-0.55 0.73-0.11 0.51-0.15 1.31-0.11 2.49 0.07 2.34 0.45 6.15 1.14 12.03 0.21 1.81 0.29 2.82 0.12 3.44q-0.12 0.45-0.44 0.69-0.33 0.23-0.9 0.4-0.74 0.23-1.65 0.05-0.91-0.18-1.93-0.75c-1.36-0.75-2.82-2-4.23-3.66q-0.94-1.08-2.16-1.77-1.22-0.69-2.56-0.95-1.33-0.27-2.61-0.08-1.28 0.18-2.33 0.86c-0.55 0.36-1.18 1.09-1.77 2.01-0.59 0.92-1.14 2.03-1.54 3.14q-0.56 1.6-1.13 2.58-0.57 0.99-1.24 1.43-0.68 0.44-1.56 0.4-0.89-0.05-2.07-0.5-1.46-0.56-2.56-0.77-1.09-0.22-1.83-0.07-0.74 0.15-1.12 0.67-0.38 0.53-0.4 1.46-0.05 1.84 1.34 5.4 1.38 3.55 4.19 8.97c0.82 1.58 1.49 3.73 1.49 4.79 0 0.68 0.2 1.28 0.64 1.86 0.45 0.59 1.14 1.15 2.12 1.76q1.41 0.87 2.4 1.78 0.99 0.92 1.58 1.89 0.59 0.98 0.79 2.04 0.2 1.06 0.01 2.22c-0.09 0.56-0.13 1.02-0.08 1.46 0.04 0.44 0.17 0.86 0.41 1.31 0.49 0.92 1.45 1.99 3.16 3.74q1.56 1.6 2.59 3.07 1.04 1.47 1.56 2.85 0.53 1.39 0.56 2.72 0.04 1.33-0.41 2.65-0.23 0.67-0.26 1.2-0.03 0.52 0.22 1.06c0.33 0.72 1.08 1.56 2.44 2.91l3.09 3.09 0.26 8.15c0.13 3.86 0.23 5.94 0.59 7.46 0.18 0.76 0.42 1.38 0.76 2 0.35 0.63 0.79 1.27 1.37 2.07 1.34 1.85 2.77 3.37 3.18 3.37 0.4 0 3.47-3.67 6.83-8.15 2.81-3.76 6-7.54 9.5-11.31 3.49-3.76 7.29-7.49 11.33-11.13 4.03-3.64 8.29-7.19 12.72-10.58 4.43-3.39 9.01-6.62 13.69-9.63 2.85-1.83 6.32-3.87 10.35-6.09 4.03-2.22 8.62-4.62 13.7-7.16 10.16-5.08 22.28-10.73 35.82-16.69 10.22-4.5 19.16-8.59 27.03-12.38 0.36-0.18 0.6-0.32 0.96-0.5z"/>
			<path id="path17068" class="s5" d="m246.15 297.31h1.95c27.17 0 49.04-21.87 49.04-49.03v-142.01c-2.01 1.11-3.23 1.92-6.06 3.37-7.03 3.63-17.34 8.73-34.74 17.27-9.3 4.56-17.33 8.68-24.41 12.54-7.07 3.85-13.19 7.46-18.67 11.02-5.47 3.56-10.3 7.06-14.8 10.72-4.49 3.66-8.65 7.46-12.78 11.62-2.23 2.25-4.27 4.41-6.16 6.54-1.9 2.14-3.67 4.26-5.36 6.45-1.69 2.19-3.31 4.45-4.93 6.87-1.62 2.42-3.23 4.99-4.9 7.79-2.78 4.67-6.1 9.62-7.38 11q-1.18 1.27-1.82 2.8-0.63 1.53-0.72 3.27-0.09 1.73 0.37 3.62 0.47 1.89 1.48 3.88c0.9 1.77 1.36 2.69 1.37 3.11q0 0.3-0.33 0.29-0.32-0.01-0.98-0.19-0.73-0.19-1.31 0.02-0.58 0.2-1.01 0.74c-0.57 0.7-0.94 1.8-1.09 3.14-0.14 1.34-0.07 2.91 0.25 4.55 0.32 1.63 0.88 3.34 1.7 4.96q1.39 2.73 2.49 4.12 1.11 1.39 1.88 1.44 0.39 0.03 0.69-0.28 0.3-0.31 0.5-0.96 0.41-1.29 0.42-3.93 0-2.35 0.34-4.43 0.35-2.09 1.04-3.89 0.69-1.81 1.72-3.34 1.03-1.52 2.4-2.76 1.33-1.21 2.45-1.86 1.11-0.65 2.13-0.75 1.02-0.09 2.06 0.35 1.04 0.45 2.22 1.42l2.33 1.91-3.64-0.14q-1.22-0.04-2.25 0.13-1.04 0.17-1.88 0.56-0.85 0.4-1.52 1.03-0.67 0.63-1.16 1.5-0.98 1.75-1.3 4.53-0.32 2.78-0.01 6.68c0.26 3.4 0.63 6.34 0.82 6.54 0.2 0.19 3.16-0.73 6.59-2.06q3.15-1.21 5.68-1.83 2.52-0.61 4.52-0.63 1.99-0.02 3.53 0.56 1.54 0.59 2.71 1.77c1.25 1.24 2.27 2.64 2.27 3.1 0 0.27 0.01 0.46-0.05 0.59-0.05 0.13-0.17 0.19-0.41 0.17-0.48-0.04-1.45-0.39-3.42-1.09q-1.83-0.64-3.54-0.95-1.72-0.3-3.32-0.27-1.6 0.03-3.09 0.41-1.49 0.37-2.87 1.08-1.38 0.72-2.65 1.77-1.27 1.06-2.44 2.46-1.16 1.4-2.22 3.14-1.05 1.74-2.01 3.83c-0.5 1.1-1 2.55-1.46 4.15-0.45 1.59-0.86 3.32-1.19 4.98-0.32 1.65-0.56 3.23-0.67 4.52-0.11 1.29-0.09 2.29 0.1 2.79q0.26 0.65 1 1.18 0.74 0.53 1.89 0.91c1.52 0.5 3.53 0.78 5.83 0.78 1.44 0 3.31-0.32 6.02-1.07 2.71-0.76 6.26-1.95 11.06-3.69 7.23-2.62 16.34-5.6 20.23-6.61q4.07-1.05 7.98-1.65 3.91-0.61 7.58-0.77 3.67-0.16 7.03 0.09 3.35 0.25 6.3 0.91 2.96 0.66 5.44 1.7 2.47 1.03 4.39 2.44 1.92 1.41 3.21 3.16 1.28 1.75 1.85 3.84 0.41 1.56 0.22 3.48-0.19 1.93-0.91 4.1-0.72 2.18-1.9 4.5-1.17 2.32-2.73 4.67c-0.3 0.45-0.67 0.88-0.99 1.33z"/>
			<path id="path17066" class="s6" d="m2.9 172.3v51.53c1.01-0.95 2-1.93 3.08-2.81q2.48-2.02 5.22-3.78 2.73-1.77 5.71-3.29 2.99-1.52 6.24-2.78 3.24-1.27 6.74-2.29 3.5-1.02 7.27-1.79 3.76-0.77 7.78-1.3c1.12-0.14 2.09-0.35 2.75-0.57 0.66-0.21 1.02-0.44 0.91-0.62-0.23-0.36-3.57-2.29-7.44-4.28q-4.47-2.31-8.82-4.95-4.35-2.64-8.55-5.58-4.21-2.95-8.26-6.18-4.05-3.24-7.92-6.75c-1.61-1.47-3.15-3.02-4.71-4.56z"/>
			<path id="path17064" class="s7" d="m132.29 3.12h-80.35c-27.17 0-49.04 21.87-49.04 49.03v21.43c4.08 3.37 8.2 6.79 12.17 9.97 5.57 4.46 10.78 8.52 14.92 11.61q3.29 2.44 6.16 4.93 2.86 2.5 5.36 5.15 2.51 2.66 4.71 5.58 2.21 2.93 4.19 6.24 1.97 3.3 3.79 7.1 1.81 3.79 3.52 8.18 1.71 4.39 3.38 9.49 1.68 5.1 3.38 11.01c2.25 7.78 4.25 14.25 6.1 19.64 1.85 5.39 3.56 9.7 5.23 13.13q1.25 2.57 2.49 4.52 1.24 1.96 2.51 3.38 1.26 1.42 2.6 2.39 1.34 0.97 2.78 1.57 1.42 0.6 2.75 0.7 1.32 0.09 2.68-0.37 1.35-0.45 2.85-1.5 1.5-1.04 3.26-2.71 2.56-2.43 4.34-5.29 1.78-2.87 2.78-6.17 1-3.3 1.22-7.01 0.21-3.72-0.36-7.84c-0.27-1.92-0.55-3.61-0.92-5.34-0.37-1.72-0.82-3.48-1.44-5.52-1.24-4.09-3.14-9.32-6.31-17.73-2.98-7.9-6.29-17.34-7.35-20.97-0.6-2.05-1.1-4.22-1.49-6.42-0.38-2.2-0.66-4.44-0.83-6.63-0.16-2.2-0.21-4.34-0.14-6.37 0.07-2.02 0.27-3.92 0.59-5.62q0.56-2.96 0.82-5.54 0.26-2.57 0.24-4.68-0.03-2.11-0.35-3.67-0.32-1.57-0.93-2.5-0.61-0.92-0.83-1.74-0.23-0.81-0.03-1.68 0.2-0.87 0.87-1.95 0.66-1.08 1.83-2.54c0.66-0.83 1.17-1.51 1.52-2.12 0.36-0.6 0.57-1.14 0.64-1.68 0.07-0.54 0-1.1-0.19-1.74-0.2-0.65-0.52-1.39-0.95-2.31l-1.28-2.69 2.83-2.34c1.04-0.86 1.75-1.59 2.2-2.32 0.44-0.73 0.63-1.45 0.63-2.28 0-0.73 0.21-1.51 0.69-2.4 0.47-0.9 1.21-1.9 2.27-3.08 2.13-2.37 5.53-5.43 10.66-9.69q2.99-2.48 5.36-4.73 2.36-2.25 4.02-4.17 1.66-1.92 2.52-3.42 0.87-1.5 0.87-2.48 0-1.06-0.26-1.76-0.25-0.69-0.82-1.06-0.56-0.36-1.52-0.44-0.95-0.08-2.36 0.08c-0.98 0.11-1.87 0.13-2.52 0.08-0.65-0.06-1.05-0.18-1.05-0.38 0-0.25 0.44-0.71 1.13-1.26 0.69-0.55 1.62-1.18 2.61-1.78 0.98-0.6 2.02-1.17 2.92-1.59 0.89-0.42 1.65-0.69 2.07-0.69q0.88 0.01 1.91 0.37 1.02 0.37 2.07 1.01c1.38 0.84 2.69 2 3.59 3.27q1.21 1.68 2.32 2.16 0.56 0.25 1.06 0.21 0.5-0.04 0.93-0.35 0.88-0.62 1.39-2.25 0.5-1.63 0.5-4.17-0.01-1.78-0.39-3.5-0.38-1.73-1.1-3.32c-0.39-0.87-0.89-1.67-1.42-2.44z"/>
			<path id="path17062" class="s8" d="m153.55 3.12h-11.15c0.42 0.55 0.84 1.11 1.18 1.76q0.64 1.21 1.08 2.65 0.88 2.86 0.95 6.61c0.05 2.73 0.32 4.97 0.61 4.97 0.29 0.01 1.74-1.14 3.23-2.53q1.58-1.5 2.57-3.5 1-1.99 1.39-4.43 0.4-2.44 0.19-5.27-0.02-0.13-0.05-0.26z"/>
			<path id="rect3179" class="s9" d="m153.55 3.12q0.03 0.13 0.05 0.26 0.21 2.83-0.19 5.27-0.39 2.44-1.39 4.43-0.99 2-2.57 3.5c-1.49 1.39-2.94 2.54-3.23 2.53-0.29 0-0.56-2.24-0.61-4.97q-0.07-3.75-0.95-6.61-0.44-1.44-1.08-2.65c-0.34-0.65-0.76-1.21-1.18-1.76h-10.11c0.53 0.77 1.03 1.57 1.42 2.44q0.72 1.59 1.1 3.32 0.38 1.72 0.39 3.5 0 2.54-0.5 4.17-0.51 1.63-1.39 2.25-0.43 0.31-0.93 0.35-0.5 0.04-1.06-0.21-1.11-0.48-2.32-2.16c-0.9-1.27-2.21-2.43-3.59-3.27q-1.05-0.64-2.07-1.01-1.03-0.36-1.91-0.37c-0.42 0-1.18 0.27-2.07 0.69-0.9 0.42-1.94 0.99-2.92 1.59-0.99 0.6-1.92 1.23-2.61 1.78-0.69 0.55-1.13 1.01-1.13 1.26 0 0.2 0.4 0.32 1.05 0.38 0.65 0.05 1.54 0.03 2.52-0.08q1.41-0.16 2.36-0.08 0.96 0.08 1.52 0.44 0.57 0.37 0.82 1.06 0.26 0.7 0.26 1.76 0 0.98-0.87 2.48-0.86 1.5-2.52 3.42-1.66 1.92-4.02 4.17-2.37 2.25-5.36 4.73c-5.13 4.26-8.53 7.32-10.66 9.69-1.06 1.18-1.8 2.18-2.27 3.08-0.48 0.89-0.69 1.67-0.69 2.4 0 0.83-0.19 1.55-0.63 2.28-0.45 0.73-1.16 1.46-2.2 2.32l-2.83 2.34 1.28 2.69c0.43 0.92 0.75 1.66 0.95 2.31 0.19 0.64 0.26 1.2 0.19 1.74-0.07 0.54-0.28 1.08-0.64 1.68-0.35 0.61-0.86 1.29-1.52 2.12q-1.17 1.46-1.83 2.54-0.67 1.08-0.87 1.95-0.2 0.87 0.03 1.68 0.22 0.82 0.83 1.74 0.61 0.93 0.93 2.5 0.32 1.56 0.35 3.67 0.02 2.11-0.24 4.68-0.26 2.58-0.82 5.54c-0.32 1.7-0.52 3.6-0.59 5.62-0.07 2.03-0.02 4.17 0.14 6.37 0.17 2.19 0.45 4.43 0.83 6.63 0.39 2.2 0.89 4.37 1.49 6.42 1.06 3.63 4.37 13.07 7.35 20.97 3.17 8.41 5.07 13.64 6.31 17.73 0.62 2.04 1.07 3.8 1.44 5.52 0.37 1.73 0.65 3.42 0.92 5.34q0.57 4.12 0.36 7.84-0.22 3.71-1.22 7.01-1 3.3-2.78 6.17-1.78 2.86-4.34 5.29-1.76 1.67-3.26 2.71-1.5 1.05-2.85 1.5-1.36 0.46-2.68 0.37-1.33-0.1-2.75-0.7-1.44-0.6-2.78-1.57-1.34-0.97-2.6-2.39-1.27-1.42-2.51-3.38-1.24-1.95-2.49-4.52c-1.67-3.43-3.38-7.74-5.23-13.13-1.85-5.39-3.85-11.86-6.1-19.64q-1.7-5.91-3.38-11.01-1.67-5.1-3.38-9.49-1.71-4.39-3.52-8.18-1.82-3.8-3.79-7.1-1.98-3.31-4.19-6.24-2.2-2.92-4.71-5.58-2.5-2.65-5.36-5.15-2.87-2.49-6.16-4.93c-4.14-3.09-9.35-7.15-14.92-11.61-3.97-3.18-8.09-6.6-12.17-9.97v98.72c1.56 1.54 3.1 3.09 4.71 4.56q3.87 3.51 7.92 6.75 4.05 3.23 8.26 6.18 4.2 2.94 8.55 5.58 4.35 2.64 8.82 4.95c3.87 1.99 7.21 3.92 7.44 4.28 0.11 0.18-0.25 0.41-0.91 0.62-0.66 0.22-1.63 0.43-2.75 0.57q-4.02 0.53-7.78 1.3-3.77 0.77-7.27 1.79-3.5 1.02-6.74 2.29-3.25 1.26-6.24 2.78-2.98 1.52-5.71 3.29-2.74 1.76-5.22 3.78c-1.08 0.88-2.07 1.86-3.08 2.81v24.45c0 27.16 21.87 49.03 49.04 49.03h194.21c0.32-0.45 0.69-0.88 0.99-1.33q1.56-2.35 2.73-4.67 1.18-2.32 1.9-4.5 0.72-2.17 0.91-4.1 0.19-1.92-0.22-3.48-0.57-2.09-1.85-3.84-1.29-1.75-3.21-3.16-1.92-1.41-4.39-2.44-2.48-1.04-5.44-1.7-2.95-0.66-6.3-0.91-3.36-0.25-7.03-0.09-3.67 0.16-7.58 0.77-3.91 0.6-7.98 1.65c-3.89 1.01-13 3.99-20.23 6.61-4.8 1.74-8.35 2.93-11.06 3.69-2.71 0.75-4.58 1.07-6.02 1.07-2.3 0-4.31-0.28-5.83-0.78q-1.15-0.38-1.89-0.91-0.74-0.53-1-1.18c-0.19-0.5-0.21-1.5-0.1-2.79 0.11-1.29 0.35-2.87 0.67-4.52 0.33-1.66 0.74-3.39 1.19-4.98 0.46-1.6 0.96-3.05 1.46-4.15q0.96-2.09 2.01-3.83 1.06-1.74 2.22-3.14 1.17-1.4 2.44-2.46 1.27-1.05 2.65-1.77 1.38-0.71 2.87-1.08 1.49-0.38 3.09-0.41 1.6-0.03 3.32 0.27 1.71 0.31 3.54 0.95c1.97 0.7 2.94 1.05 3.42 1.09 0.24 0.02 0.36-0.04 0.41-0.17 0.06-0.13 0.05-0.32 0.05-0.59 0-0.46-1.02-1.86-2.27-3.1q-1.17-1.18-2.71-1.77-1.54-0.58-3.53-0.56-2 0.02-4.52 0.63-2.53 0.62-5.68 1.83c-3.43 1.33-6.39 2.25-6.59 2.06-0.19-0.2-0.56-3.14-0.82-6.54q-0.31-3.9 0.01-6.68 0.32-2.78 1.3-4.53 0.49-0.87 1.16-1.5 0.67-0.63 1.52-1.03 0.84-0.39 1.88-0.56 1.03-0.17 2.25-0.13l3.64 0.14-2.33-1.91q-1.18-0.97-2.22-1.42-1.04-0.44-2.06-0.35-1.02 0.1-2.13 0.75-1.12 0.65-2.45 1.86-1.37 1.24-2.4 2.76-1.03 1.53-1.72 3.34-0.69 1.8-1.04 3.89-0.34 2.08-0.34 4.43-0.01 2.64-0.42 3.93-0.2 0.65-0.5 0.96-0.3 0.31-0.69 0.28-0.77-0.05-1.88-1.44-1.1-1.39-2.49-4.12c-0.82-1.62-1.38-3.33-1.7-4.96-0.32-1.64-0.39-3.21-0.25-4.55 0.15-1.34 0.52-2.44 1.09-3.14q0.43-0.54 1.01-0.74 0.58-0.21 1.31-0.02 0.66 0.18 0.98 0.19 0.33 0.01 0.33-0.29c-0.01-0.42-0.47-1.34-1.37-3.11q-1.01-1.99-1.48-3.88-0.46-1.89-0.37-3.62 0.09-1.74 0.72-3.27 0.64-1.53 1.82-2.8c1.28-1.38 4.6-6.33 7.38-11 1.67-2.8 3.28-5.37 4.9-7.79 1.62-2.42 3.24-4.68 4.93-6.87 1.69-2.19 3.46-4.31 5.36-6.45 1.89-2.13 3.93-4.29 6.16-6.54 4.13-4.16 8.29-7.96 12.78-11.62 4.5-3.66 9.33-7.16 14.8-10.72 5.48-3.56 11.6-7.17 18.67-11.02 7.08-3.86 15.11-7.98 24.41-12.54 17.4-8.54 27.71-13.64 34.74-17.27 2.83-1.45 4.05-2.26 6.06-3.37v-11.9c-0.36 0.18-0.6 0.32-0.96 0.5-7.87 3.79-16.81 7.88-27.03 12.38-13.54 5.96-25.66 11.61-35.82 16.69-5.08 2.54-9.67 4.94-13.7 7.16-4.03 2.22-7.5 4.26-10.35 6.09-4.68 3.01-9.26 6.24-13.69 9.63-4.43 3.39-8.69 6.94-12.72 10.58-4.04 3.64-7.84 7.37-11.33 11.13-3.5 3.77-6.69 7.55-9.5 11.31-3.36 4.48-6.43 8.15-6.83 8.15-0.41 0-1.84-1.52-3.18-3.37-0.58-0.8-1.02-1.44-1.37-2.07-0.34-0.62-0.58-1.24-0.76-2-0.36-1.52-0.46-3.6-0.59-7.46l-0.26-8.15-3.09-3.09c-1.36-1.35-2.11-2.19-2.44-2.91q-0.25-0.54-0.22-1.06 0.03-0.53 0.26-1.2 0.45-1.32 0.41-2.65-0.03-1.33-0.56-2.72-0.52-1.38-1.56-2.85-1.03-1.47-2.59-3.07c-1.71-1.75-2.67-2.82-3.16-3.74-0.24-0.45-0.37-0.87-0.41-1.31-0.05-0.44-0.01-0.9 0.08-1.46q0.19-1.16-0.01-2.22-0.2-1.06-0.79-2.04-0.59-0.97-1.58-1.89-0.99-0.91-2.4-1.78c-0.98-0.61-1.67-1.17-2.12-1.76-0.44-0.58-0.64-1.18-0.64-1.86 0-1.06-0.67-3.21-1.49-4.79q-2.81-5.42-4.19-8.97-1.39-3.56-1.34-5.4 0.02-0.93 0.4-1.46 0.38-0.52 1.12-0.67 0.74-0.15 1.83 0.07 1.1 0.21 2.56 0.77 1.18 0.45 2.07 0.5 0.88 0.04 1.56-0.4 0.67-0.44 1.24-1.43 0.57-0.98 1.13-2.58c0.4-1.11 0.95-2.22 1.54-3.14 0.59-0.92 1.22-1.65 1.77-2.01q1.05-0.68 2.33-0.86 1.28-0.19 2.61 0.08 1.34 0.26 2.56 0.95 1.22 0.69 2.16 1.77c1.41 1.66 2.87 2.91 4.23 3.66q1.02 0.57 1.93 0.75 0.91 0.18 1.65-0.05 0.57-0.17 0.9-0.4 0.32-0.24 0.44-0.69c0.17-0.62 0.09-1.63-0.12-3.44-0.69-5.88-1.07-9.69-1.14-12.03-0.04-1.18 0-1.98 0.11-2.49 0.11-0.51 0.29-0.73 0.55-0.73 0.27 0 1.24 0.72 2.57 1.88 1.32 1.16 3.02 2.76 4.75 4.52 2.67 2.71 4.42 4.66 5.97 6.86 1.55 2.2 2.91 4.67 4.78 8.42 1.22 2.44 2.33 4.86 3.13 6.8 0.81 1.93 1.3 3.38 1.3 3.88 0 0.49 0.08 0.94 0.21 1.27 0.12 0.33 0.3 0.53 0.49 0.53 0.23 0 0.44-0.42 0.61-1.1 0.17-0.68 0.31-1.62 0.39-2.66 0.17-2.07 0.13-4.54-0.21-6.11-0.21-1-0.28-1.65-0.16-2.09 0.13-0.44 0.44-0.67 0.99-0.85 0.3-0.09 0.52-0.21 0.64-0.41 0.11-0.2 0.12-0.49 0.01-0.92-0.22-0.88-0.93-2.37-2.26-5.02-1.44-2.87-3.04-6.62-4.21-9.72-1.18-3.1-1.93-5.55-1.67-5.81 0.14-0.14 3.13-0.66 6.65-1.15q2.91-0.42 5.51-0.45 2.61-0.03 5.08 0.35 2.47 0.38 4.99 1.2 2.52 0.82 5.25 2.1c2.77 1.3 5.17 2.36 5.32 2.36 0.16 0-0.08-0.96-0.52-2.13q-0.41-1.1-1.64-2.68-1.22-1.58-3.26-3.62-4.07-4.09-11.34-10.02c-4.14-3.38-7.42-6.27-9.67-8.5q-1.69-1.68-2.58-2.83-0.89-1.15-0.92-1.72c-0.02-0.72-0.21-1.66-0.52-2.71-0.3-1.05-0.73-2.21-1.24-3.4-1.01-2.37-2.35-4.83-3.68-6.62-1.29-1.73-2.2-3.12-2.69-4.27q-0.37-0.86-0.41-1.55-0.04-0.69 0.26-1.24 0.3-0.56 0.97-1.01 0.66-0.45 1.7-0.82c1.4-0.51 3.31-0.94 5.79-1.38 1.63-0.29 2.86-0.62 3.81-1.06 0.96-0.44 1.64-0.98 2.21-1.7 0.95-1.21 1.44-2.12 1.48-2.64q0.02-0.39-0.3-0.46-0.33-0.08-1 0.2c-1.09 0.46-3.31 0.98-5.31 1.32-1.99 0.34-3.78 0.52-4.01 0.29-0.23-0.24 1-1.97 2.74-3.86 1.73-1.87 3.33-4.1 4.49-6.14 0.58-1.02 1.05-1.99 1.38-2.84 0.32-0.86 0.49-1.59 0.48-2.14q-0.01-0.29-0.16-0.26-0.16 0.03-0.42 0.34c-0.35 0.41-0.83 1.16-1.35 2.16q-0.87 1.68-1.75 2.84-0.88 1.17-1.85 1.88-0.98 0.71-2.13 1.03-1.15 0.33-2.57 0.32c-1.61 0-2.93-0.14-2.93-0.31 0-0.18 1.05-2.66 2.33-5.52 0.82-1.83 1.45-3.38 1.91-4.74 0.46-1.35 0.73-2.51 0.84-3.54 0.11-1.03 0.05-1.93-0.18-2.79-0.22-0.86-0.61-1.67-1.15-2.51l-0.3-0.47h-1.69l-0.31 2.99c-0.24 2.26-0.62 4.4-1.1 6.34-0.48 1.94-1.07 3.67-1.73 5.12-0.65 1.44-1.38 2.61-2.14 3.41q-0.57 0.61-1.16 0.92-0.59 0.32-1.19 0.32c-0.31 0-0.75-0.17-1.2-0.46-0.45-0.29-0.92-0.68-1.29-1.11-0.54-0.64-0.88-1.42-1.09-2.84-0.2-1.42-0.27-3.48-0.27-6.68-0.01-2.1-0.06-3.85-0.2-5.33-0.09-1.06-0.28-1.86-0.47-2.68zm-6.97 235.42l2.66 1.55q1.55 0.91 2.71 2.04 1.16 1.13 1.92 2.49 0.77 1.36 1.15 2.96 0.38 1.61 0.38 3.45c0 1.65-0.08 2.99-0.33 4.13-0.25 1.14-0.67 2.09-1.35 2.96-0.67 0.87-1.61 1.65-2.89 2.47-1.27 0.82-2.9 1.67-4.95 2.67-1.98 0.95-4.55 2.04-7.12 3.04-2.56 0.99-5.12 1.89-7.04 2.44-1.82 0.53-3.87 0.99-5.97 1.37-2.09 0.38-4.24 0.68-6.23 0.87-2 0.2-3.85 0.3-5.37 0.27-1.52-0.02-2.71-0.17-3.37-0.45q-0.51-0.2-0.64-0.46-0.13-0.26 0.23-0.71c0.49-0.61 1.7-1.55 3.91-3.18 2.76-2.03 7.3-5.05 10.09-6.71 2.78-1.65 7.13-4.67 9.67-6.71 2.08-1.68 3.56-3.01 5.14-4.79 1.58-1.77 3.28-4 5.79-7.48z"/>
		</g>
		<g id="layer5">
			<g id="g3342">
				<g id="layer2-2">
					<g id="g3350">
						<g id="layer2-5">
						</g>
					</g>
				</g>
			</g>
		</g>
		<path id="rect3179-7" class="s10" d="m132.42 3.13c1.79 2.65 2.85 5.93 2.87 9.26 0.03 6.76-3 8.9-6.21 4.4-1.79-2.53-5.25-4.65-7.56-4.65-1.68 0-8.73 4.3-8.73 5.32 0 0.39 1.61 0.52 3.57 0.3 3.76-0.43 4.93 0.33 4.96 3.18 0.02 2.6-4.8 8.19-12.77 14.8-10.26 8.52-13.62 12.26-13.62 15.17 0 1.67-0.75 2.89-2.83 4.6l-2.83 2.34 1.28 2.69c1.74 3.67 1.63 4.51-1.02 7.85-3.12 3.92-3.47 5.42-1.84 7.91 1.62 2.47 1.7 8.52 0.22 16.39-1.28 6.79-0.53 16.83 1.87 25.04 1.06 3.63 4.37 13.07 7.35 20.97 6.35 16.82 7.59 20.92 8.66 28.59 1.54 10.98-1.15 19.85-7.97 26.31-4.73 4.47-7.73 5.48-11.54 3.88-7.72-3.23-12.72-13.53-21.71-44.63-9.12-31.58-16.91-44.61-34.49-57.68-7.1-5.28-17.29-13.44-27.09-21.54v98.77c11.54 11.31 24.5 20.82 38.26 27.93 3.87 1.99 7.21 3.92 7.44 4.28 0.22 0.37-1.42 0.9-3.66 1.19-17.83 2.33-31.78 8.29-42.04 17.96v24.53c0 27.16 21.87 49.03 49.04 49.03h194.26c4.72-6.66 7.45-13.65 6.26-18.08-3-11.11-22.11-15.35-43.78-9.72-3.9 1.01-13 3.99-20.23 6.61-9.6 3.48-14.21 4.76-17.08 4.76-4.6 0-8.05-1.13-8.72-2.87-0.76-1.99 1.21-12.03 3.22-16.44 5.08-11.13 12.38-14.91 22.14-11.47 3.94 1.39 3.88 1.39 3.88 0.33 0-0.46-1.02-1.86-2.27-3.1-3.14-3.15-8.03-3.11-16.44 0.13-3.43 1.33-6.39 2.25-6.59 2.06-0.19-0.2-0.56-3.14-0.83-6.54-0.8-10.41 1.6-14.67 8.13-14.43l3.64 0.14-2.33-1.91c-3.18-2.6-5.28-2.4-8.87 0.84-3.64 3.3-5.49 8.15-5.49 14.42 0 7.04-2.29 6.89-5.98-0.39-3.27-6.46-2.41-14.42 1.46-13.41 1.75 0.46 1.75 0.34-0.06-3.21-2.71-5.3-2.46-10.18 0.69-13.57 1.27-1.38 4.59-6.33 7.37-11 6.7-11.23 12.42-18.65 21.36-27.65 16.52-16.63 33.47-27.64 70.66-45.9 23.26-11.42 33.77-16.66 40.8-20.47v-12.05c-8.11 3.93-17.34 8.17-27.99 12.86-27.09 11.92-48.48 22.62-59.87 29.94-18.71 12.03-35.99 27.63-47.24 42.65-3.36 4.48-6.43 8.15-6.84 8.15-0.4 0-1.83-1.52-3.18-3.37-2.31-3.19-2.46-3.82-2.71-11.53l-0.26-8.15-3.09-3.09c-2.71-2.71-3.01-3.34-2.4-5.17 1.19-3.53-0.15-7.02-4.31-11.29-3.41-3.5-3.83-4.29-3.48-6.51 0.49-3.1-1.02-5.61-4.79-7.93-1.95-1.21-2.75-2.26-2.75-3.62 0-1.06-0.67-3.21-1.49-4.79-7.49-14.48-7.39-18.62 0.37-15.67 3.19 1.22 4.5 0.36 6.01-3.9 0.79-2.22 2.21-4.43 3.31-5.15 2.77-1.81 7.2-0.92 9.65 1.94 2.84 3.32 5.84 4.99 7.82 4.36 1.53-0.49 1.64-0.91 1.22-4.53-1.38-11.76-1.49-15.25-0.48-15.25 0.55 0 3.85 2.88 7.32 6.4 5.35 5.42 7 7.77 10.75 15.28 2.44 4.88 4.43 9.69 4.43 10.68 0 0.99 0.32 1.8 0.7 1.8 0.93 0 1.47-6.73 0.79-9.88-0.43-1.99-0.26-2.58 0.83-2.93 1.22-0.38 1.05-1.06-1.61-6.35-2.88-5.74-6.39-15.01-5.88-15.53 0.14-0.14 3.13-0.66 6.65-1.15 7.8-1.11 13.5-0.23 20.83 3.2 2.77 1.3 5.17 2.36 5.32 2.36 0.16 0-0.08-0.96-0.52-2.13-1.1-2.93-6.56-8.43-16.24-16.32-8.29-6.77-13.12-11.55-13.17-13.05-0.1-2.9-2.78-9.16-5.44-12.73-5.16-6.91-4.29-8.5 5.62-10.27 3.27-0.58 4.89-1.32 6.01-2.76 1.91-2.42 1.99-3.65 0.19-2.9-2.19 0.92-8.86 2.07-9.32 1.61-0.23-0.24 1-1.97 2.74-3.86 3.45-3.73 6.4-8.92 6.35-11.12-0.02-0.77-0.89 0.24-1.93 2.24-2.34 4.49-4.5 6.07-8.3 6.07-1.61 0-2.94-0.14-2.94-0.31 0-0.18 1.05-2.66 2.34-5.52 3.28-7.32 3.58-10.22 1.42-13.58l-0.3-0.47h-1.69l-0.31 2.99c-0.95 9.07-4.15 16.11-7.32 16.11-0.62 0-1.75-0.71-2.49-1.57-1.09-1.28-1.35-3.12-1.37-9.52 0-3.54-0.15-6.05-0.58-8.01h-3.95c0.48 5.77-0.92 10.43-4.12 13.46-1.49 1.39-2.94 2.54-3.23 2.53-0.29 0-0.56-2.24-0.61-4.97q-0.14-7.09-3.18-11.02zm14.26 235.42l2.66 1.55c4.13 2.42 6.16 6.01 6.16 10.94 0 6.58-1.3 8.25-9.53 12.23-3.94 1.9-10.31 4.37-14.15 5.48-7.28 2.11-18.3 3.19-20.94 2.06-1.35-0.57-0.92-1.1 3.49-4.35 2.76-2.03 7.3-5.05 10.09-6.71 2.79-1.65 7.14-4.68 9.67-6.71 4.17-3.37 5.9-5.31 10.94-12.27zm-1.41 32.11c2.39-0.01 3.73 1.53 6.28 4.98 1.73 2.34 3.5 4.47 3.93 4.74 1.43 0.89 0.84 1.96-1.08 1.96-1.03 0-5.55 1.78-10.05 3.97-8.78 4.27-13.86 5.38-16.41 3.58-0.86-0.6-3.56-1.91-6.02-2.91-2.45-1-4.46-2.04-4.46-2.31 0-1.02 4.4-4.56 7.76-6.25 1.92-0.96 7.12-3.25 11.54-5.08 4.18-1.72 6.66-2.67 8.51-2.68z"/>
	</g>
	<g id="layer2">
	</g>
</svg>